<svg width="90" height="90" viewBox="0 0 90 90" fill="none" xmlns="http://www.w3.org/2000/svg">
<g filter="url(#filter0_di_1274_419)">
<path d="M59.3337 43.3333C56.3354 46.3315 44.667 55.3333 44.667 55.3333M59.3337 43.3333C67.3337 35.3333 67.3337 30 67.3337 22C59.3337 22 54.0003 22 46.0003 30M59.3337 43.3333L61.4755 54.0427C61.8034 55.682 61.2903 57.3767 60.1082 58.5588L52.2711 66.3959C51.8013 66.8657 51.0125 66.7552 50.6898 66.1744L44.667 55.3333M46.0003 30L34.0003 44.6666M46.0003 30L35.2909 27.8581C33.6516 27.5302 31.9569 28.0434 30.7748 29.2255L22.9378 37.0625C22.468 37.5323 22.5785 38.3212 23.1592 38.6438L34.0003 44.6666M34.0003 44.6666L44.667 55.3333M55.3337 34.0013L52.667 36.6679M22.0003 67.3333L33.7259 64.9882C34.6607 64.8012 35.3337 63.9804 35.3337 63.027L35.3337 56C35.3337 54.8954 34.4382 54 33.3337 54L26.3066 54C25.3532 54 24.5324 54.6729 24.3454 55.6077L22.0003 67.3333Z" stroke="#338CFF" stroke-width="4" stroke-linecap="round" stroke-linejoin="round" shape-rendering="crispEdges"/>
</g>
<defs>
<filter id="filter0_di_1274_419" x="0" y="0" width="89.334" height="89.3333" filterUnits="userSpaceOnUse" color-interpolation-filters="sRGB">
<feFlood flood-opacity="0" result="BackgroundImageFix"/>
<feColorMatrix in="SourceAlpha" type="matrix" values="0 0 0 0 0 0 0 0 0 0 0 0 0 0 0 0 0 0 127 0" result="hardAlpha"/>
<feOffset/>
<feGaussianBlur stdDeviation="10"/>
<feComposite in2="hardAlpha" operator="out"/>
<feColorMatrix type="matrix" values="0 0 0 0 0.2 0 0 0 0 0.54902 0 0 0 0 1 0 0 0 0.6 0"/>
<feBlend mode="normal" in2="BackgroundImageFix" result="effect1_dropShadow_1274_419"/>
<feBlend mode="normal" in="SourceGraphic" in2="effect1_dropShadow_1274_419" result="shape"/>
<feColorMatrix in="SourceAlpha" type="matrix" values="0 0 0 0 0 0 0 0 0 0 0 0 0 0 0 0 0 0 127 0" result="hardAlpha"/>
<feOffset dy="4"/>
<feGaussianBlur stdDeviation="2"/>
<feComposite in2="hardAlpha" operator="arithmetic" k2="-1" k3="1"/>
<feColorMatrix type="matrix" values="0 0 0 0 1 0 0 0 0 1 0 0 0 0 1 0 0 0 0.25 0"/>
<feBlend mode="normal" in2="shape" result="effect2_innerShadow_1274_419"/>
</filter>
</defs>
</svg>
