<svg width="103" height="84" viewBox="0 0 103 84" fill="none" xmlns="http://www.w3.org/2000/svg">
<g filter="url(#filter0_di_1281_444)">
<path d="M37.4 23C32.3595 23 29.8393 23 27.9141 23.9809C26.2206 24.8438 24.8438 26.2206 23.9809 27.9141C23 29.8393 23 32.3595 23 37.4L23 46.1C23 51.1405 23 53.6607 23.9809 55.5859C24.8438 57.2794 26.2206 58.6562 27.9141 59.5191C29.8393 60.5 32.3595 60.5 37.4 60.5H46.1C51.1405 60.5 53.6607 60.5 55.5859 59.5191C57.2794 58.6562 58.6562 57.2794 59.5191 55.5859C60.5 53.6607 60.5 51.1405 60.5 46.1V37.4C60.5 32.3595 60.5 29.8393 59.5191 27.9141C58.6562 26.2206 57.2794 24.8438 55.5859 23.9809C53.6607 23 51.1405 23 46.1 23H37.4Z" stroke="#338CFF" stroke-width="6" stroke-linecap="round" stroke-linejoin="round" shape-rendering="crispEdges"/>
<path d="M70.6823 31.5677C67.1182 35.1318 65.3361 36.9139 64.6684 38.9688C64.0811 40.7764 64.0811 42.7236 64.6684 44.5312C65.3361 46.5861 67.1182 48.3682 70.6823 51.9323L76.5186 57.7686C77.3754 58.6254 77.8038 59.0538 78.1715 59.0827C78.4907 59.1078 78.8025 58.9786 79.0104 58.7352C79.25 58.4547 79.25 57.8489 79.25 56.6373V26.8627C79.25 25.6511 79.25 25.0453 79.0104 24.7648C78.8025 24.5214 78.4907 24.3922 78.1715 24.4173C77.8038 24.4462 77.3754 24.8746 76.5186 25.7314L70.6823 31.5677Z" stroke="#338CFF" stroke-width="6" stroke-linecap="round" stroke-linejoin="round" shape-rendering="crispEdges"/>
</g>
<defs>
<filter id="filter0_di_1281_444" x="0" y="0" width="102.25" height="83.5" filterUnits="userSpaceOnUse" color-interpolation-filters="sRGB">
<feFlood flood-opacity="0" result="BackgroundImageFix"/>
<feColorMatrix in="SourceAlpha" type="matrix" values="0 0 0 0 0 0 0 0 0 0 0 0 0 0 0 0 0 0 127 0" result="hardAlpha"/>
<feOffset/>
<feGaussianBlur stdDeviation="10"/>
<feComposite in2="hardAlpha" operator="out"/>
<feColorMatrix type="matrix" values="0 0 0 0 0.2 0 0 0 0 0.54902 0 0 0 0 1 0 0 0 0.6 0"/>
<feBlend mode="normal" in2="BackgroundImageFix" result="effect1_dropShadow_1281_444"/>
<feBlend mode="normal" in="SourceGraphic" in2="effect1_dropShadow_1281_444" result="shape"/>
<feColorMatrix in="SourceAlpha" type="matrix" values="0 0 0 0 0 0 0 0 0 0 0 0 0 0 0 0 0 0 127 0" result="hardAlpha"/>
<feOffset dy="4"/>
<feGaussianBlur stdDeviation="2"/>
<feComposite in2="hardAlpha" operator="arithmetic" k2="-1" k3="1"/>
<feColorMatrix type="matrix" values="0 0 0 0 1 0 0 0 0 1 0 0 0 0 1 0 0 0 0.25 0"/>
<feBlend mode="normal" in2="shape" result="effect2_innerShadow_1281_444"/>
</filter>
</defs>
</svg>
