<svg width="30" height="30" viewBox="0 0 30 30" fill="none" xmlns="http://www.w3.org/2000/svg">
<g clip-path="url(#clip0_1323_600)">
<path d="M15 2C21.9035 2 27.5 7.8203 27.5 15C27.5 21.6465 22.7037 27.1273 16.5144 27.9048V18.9726L19.8959 18.9726L20.5973 15H16.5144V13.595C16.5144 12.5454 16.7124 11.8187 17.1665 11.3544C17.6207 10.8901 18.3311 10.6883 19.3559 10.6883C19.6153 10.6883 19.8541 10.6909 20.0659 10.6963C20.374 10.7041 20.6252 10.7176 20.8 10.7367V7.13552C20.7302 7.11533 20.6477 7.09514 20.5553 7.07527C20.3459 7.03024 20.0856 6.98684 19.8059 6.94873C19.2212 6.86908 18.5513 6.81249 18.0827 6.81249C16.19 6.81249 14.7596 7.23361 13.7611 8.10587C12.5561 9.15857 11.9803 10.8684 11.9803 13.2882V15H9.4027V18.9726H11.9803V27.6172C6.53575 26.2123 2.5 21.0967 2.5 15C2.5 7.8203 8.09645 2 15 2Z" fill="white"/>
</g>
<defs>
<clipPath id="clip0_1323_600">
<rect width="25" height="26" fill="white" transform="translate(2.5 2)"/>
</clipPath>
</defs>
</svg>
