<svg width="30" height="30" viewBox="0 0 30 30" fill="none" xmlns="http://www.w3.org/2000/svg">
<path d="M21.9281 9.6073C21.0672 9.60898 20.3672 8.91189 20.3655 8.05094C20.3638 7.18999 21.0609 6.48995 21.9222 6.48827C22.7836 6.48658 23.4836 7.18409 23.4853 8.04504C23.4866 8.90599 22.7895 9.60561 21.9281 9.6073Z" fill="white"/>
<path fill-rule="evenodd" clip-rule="evenodd" d="M15.0124 21.6744C11.3265 21.6816 8.33219 18.6995 8.32504 15.0126C8.31787 11.3267 11.3008 8.33188 14.9867 8.32472C18.6735 8.31756 21.6682 11.3014 21.6754 14.9869C21.6826 18.6738 18.6988 21.6673 15.0124 21.6744ZM14.9914 10.667C12.599 10.6713 10.6623 12.6151 10.6665 15.008C10.6711 17.4013 12.6154 19.3376 15.0078 19.3329C17.4011 19.3283 19.3378 17.3849 19.3331 14.9916C19.3285 12.5983 17.3842 10.6624 14.9914 10.667Z" fill="white"/>
<path fill-rule="evenodd" clip-rule="evenodd" d="M6.46247 2.70035C7.28803 2.37687 8.23278 2.15531 9.616 2.09002C11.0026 2.02348 11.4453 2.00831 14.9749 2.00157C18.5055 1.99484 18.9481 2.00831 20.3347 2.0698C21.7184 2.12961 22.6636 2.3478 23.4908 2.66792C24.3467 2.99772 25.0728 3.44168 25.7964 4.16236C26.5201 4.88388 26.9657 5.60752 27.2997 6.46215C27.6228 7.28856 27.8443 8.23248 27.91 9.61657C27.9757 11.0027 27.9917 11.445 27.9985 14.9751C28.0052 18.5049 27.9909 18.948 27.9302 20.3354C27.87 21.7182 27.6523 22.6638 27.3321 23.4907C27.0015 24.3466 26.5584 25.0727 25.8377 25.7964C25.117 26.5204 24.3926 26.9656 23.538 27.3001C22.7116 27.6227 21.7677 27.8443 20.3844 27.9104C18.9978 27.9761 18.5552 27.9917 15.0242 27.9984C11.495 28.0052 11.0523 27.9917 9.66572 27.9306C8.28206 27.87 7.33647 27.6522 6.50964 27.3325C5.65377 27.0014 4.92762 26.5587 4.20399 25.8376C3.47995 25.1165 3.03392 24.3925 2.70033 23.5379C2.37685 22.7119 2.15612 21.7675 2.09 20.3847C2.02387 18.9977 2.00829 18.5546 2.00156 15.0249C1.9948 11.4947 2.00871 11.0525 2.06935 9.66584C2.13043 8.28176 2.34736 7.33657 2.66747 6.5089C2.99811 5.65342 3.44121 4.92769 4.16273 4.20364C4.8834 3.48001 5.60786 3.03352 6.46247 2.70035ZM7.35333 25.1485C7.81202 25.325 8.50025 25.5356 9.76765 25.5908C11.1391 25.6502 11.5497 25.6633 15.02 25.6565C18.4915 25.6502 18.9022 25.6354 20.2732 25.571C21.5394 25.5108 22.2276 25.2976 22.685 25.119C23.292 24.8819 23.7241 24.5984 24.1782 24.144C24.6322 23.6878 24.9132 23.2544 25.1482 22.6474C25.3251 22.1883 25.5353 21.4996 25.5905 20.2322C25.6507 18.8616 25.6633 18.4505 25.6566 14.9794C25.6503 11.509 25.6355 11.0979 25.5703 9.72692C25.5104 8.46034 25.2977 7.77209 25.1187 7.31508C24.8816 6.70729 24.599 6.27598 24.1432 5.82149C23.6875 5.36701 23.2541 5.0869 22.6463 4.85187C22.1884 4.67455 21.4993 4.46478 20.2328 4.40961C18.8614 4.34938 18.4503 4.33715 14.9792 4.3439C11.5089 4.35064 11.0982 4.36453 9.72721 4.42941C8.46024 4.48963 7.77283 4.70234 7.31456 4.88136C6.70803 5.11849 6.27588 5.40028 5.82141 5.85645C5.36777 6.31261 5.08683 6.74519 4.85181 7.35341C4.67576 7.81169 4.46387 8.50078 4.40955 9.76735C4.34973 11.1388 4.33711 11.5499 4.34384 15.0202C4.35017 18.4914 4.3649 18.9025 4.42935 20.2727C4.48873 21.5401 4.70311 22.2275 4.8813 22.6862C5.11843 23.2923 5.40106 23.7244 5.85638 24.1789C6.31254 24.6317 6.74595 24.9135 7.35333 25.1485Z" fill="white"/>
</svg>
