<svg width="30" height="30" viewBox="0 0 30 30" fill="none" xmlns="http://www.w3.org/2000/svg">
<g clip-path="url(#clip0_1323_603)">
<path d="M26.0754 2H3.91953C2.8582 2 2 2.83789 2 3.87383V26.1211C2 27.157 2.8582 28 3.91953 28H26.0754C27.1367 28 28 27.157 28 26.1262V3.87383C28 2.83789 27.1367 2 26.0754 2ZM9.71367 24.1559H5.8543V11.7449H9.71367V24.1559ZM7.78398 10.0539C6.54492 10.0539 5.54453 9.05352 5.54453 7.81953C5.54453 6.58555 6.54492 5.58516 7.78398 5.58516C9.01797 5.58516 10.0184 6.58555 10.0184 7.81953C10.0184 9.04844 9.01797 10.0539 7.78398 10.0539ZM24.1559 24.1559H20.3016V18.123C20.3016 16.6859 20.2762 14.8324 18.2957 14.8324C16.2898 14.8324 15.9852 16.4016 15.9852 18.0215V24.1559H12.1359V11.7449H15.8328V13.441H15.8836C16.3965 12.466 17.6559 11.4352 19.5297 11.4352C23.4348 11.4352 24.1559 14.0047 24.1559 17.3461V24.1559V24.1559Z" fill="white"/>
</g>
<defs>
<clipPath id="clip0_1323_603">
<rect width="26" height="26" fill="white" transform="translate(2 2)"/>
</clipPath>
</defs>
</svg>
