<svg width="30" height="30" viewBox="0 0 30 30" fill="none" xmlns="http://www.w3.org/2000/svg">
<g clip-path="url(#clip0_1323_609)">
<path fill-rule="evenodd" clip-rule="evenodd" d="M28.4327 6.0427C28.8982 6.51116 29.2324 7.09365 29.402 7.73188C30.0293 10.0876 30.0293 15.0001 30.0293 15.0001C30.0293 15.0001 30.0293 19.9126 29.402 22.2682C29.2324 22.9065 28.8982 23.489 28.4327 23.9574C27.9672 24.4259 27.3869 24.7639 26.7498 24.9376C24.4043 25.5682 15.0293 25.5682 15.0293 25.5682C15.0293 25.5682 5.6543 25.5682 3.30884 24.9376C2.67171 24.7639 2.09137 24.4259 1.62591 23.9574C1.16044 23.489 0.826179 22.9065 0.65657 22.2682C0.0292969 19.9126 0.0292969 15.0001 0.0292969 15.0001C0.0292969 15.0001 0.0292969 10.0876 0.65657 7.73188C0.826179 7.09365 1.16044 6.51116 1.62591 6.0427C2.09137 5.57425 2.67171 5.23626 3.30884 5.06257C5.6543 4.43188 15.0293 4.43188 15.0293 4.43188C15.0293 4.43188 24.4043 4.43188 26.7498 5.06257C27.3869 5.23626 27.9672 5.57425 28.4327 6.0427ZM19.802 15.0001L11.9611 10.5393V19.4609L19.802 15.0001Z" fill="white"/>
</g>
<defs>
<clipPath id="clip0_1323_609">
<rect width="30" height="30" fill="white"/>
</clipPath>
</defs>
</svg>
